<svg xmlns="http://www.w3.org/2000/svg" viewBox="0 0 191.93 177.94" width="191.93" height="177.94" role="img" aria-label="Qhub">
  <title>Qhub</title>
  <defs>
    <linearGradient id="qhubBubble" x1="0" y1="0.5" x2="1" y2="0.5">
      <stop offset="0" stop-color="#73C0FB"/>
      <stop offset="1" stop-color="#0071E4"/>
    </linearGradient>
  </defs>
  <!-- speech-bubble Q; the rounded square is a hole punched by the even-odd rule -->
  <path transform="matrix(1,0,0,-1,0,177.93994)" d="M159.73 35.82994C170.91 50.67994 177.54 69.14995 177.54 89.169948 177.54 138.19995 137.79999 177.93994 88.77 177.93994 39.739999 177.93994 0 138.19995 0 89.169948 0 40.139955 39.739999 .399948 88.77 .399948 103.75 .399948 122.37 6.649948 134.75 13.209946L147.67-.000061H191.93L159.73 35.82994ZM135.54 57.42994C135.54 50.82994 130.18 45.46994 123.57 45.46994H53.96C47.35 45.46994 42 50.82994 42 57.42994V120.90994C42 127.50994 47.35 132.86994 53.96 132.86994H123.57C130.18 132.86994 135.54 127.50994 135.54 120.90994V57.42994Z" fill="url(#qhubBubble)" fill-rule="evenodd"/>
  <g fill="#47B0F2">
    <path transform="matrix(1,0,0,-1,61.190004,96.08008)" d="M2.100002 2.099861C.700002 3.499861 0 5.179868 0 7.129868 0 9.079867 .700002 10.909863 2.100002 12.389862 3.500002 13.869862 5.180001 14.609863 7.130001 14.609863 9.310001 14.609863 11.049998 13.889868 12.329998 12.449867 13.619998 11.009867 14.259998 9.229868 14.259998 7.129868 14.259998 5.179868 13.540003 3.509861 12.100002 2.099861 10.660002 .699862 9.000001-.000137 7.130001-.000137 5.260001-.000137 3.500002 .699862 2.100002 2.099861Z"/>
    <path transform="matrix(1,0,0,-1,81.600009,96.08008)" d="M2.099998 2.099861C.699998 3.499861 0 5.179868 0 7.129868 0 9.079867 .699998 10.909863 2.099998 12.389862 3.499999 13.869862 5.180005 14.609863 7.130005 14.609863 9.310005 14.609863 11.050002 13.889868 12.330002 12.449867 13.620002 11.009867 14.260002 9.229868 14.260002 7.129868 14.260002 5.179868 13.539999 3.509861 12.099998 2.099861 10.659998 .699862 9.000005-.000137 7.130005-.000137 5.260005-.000137 3.499999 .699862 2.099998 2.099861Z"/>
    <path transform="matrix(1,0,0,-1,102.01999,96.08008)" d="M2.100006 2.099861C.700006 3.499861 0 5.179868 0 7.129868 0 9.079867 .700006 10.909863 2.100006 12.389862 3.500006 13.869862 5.180005 14.609863 7.130005 14.609863 9.310005 14.609863 11.050002 13.889868 12.330002 12.449867 13.620002 11.009867 14.260002 9.229868 14.260002 7.129868 14.260002 5.179868 13.540007 3.509861 12.100006 2.099861 10.660006 .699862 9.000005-.000137 7.130005-.000137 5.260005-.000137 3.500006 .699862 2.100006 2.099861Z"/>
  </g>
</svg>
